<svg width="27" height="24" viewBox="0 0 27 24" fill="none" xmlns="http://www.w3.org/2000/svg">
<g id="&#240;&#159;&#166;&#134; icon &#34;wallet&#34;">
<path id="Vector" d="M22.4662 23H3.68327C2.20134 23 1 21.7987 1 20.3167V8.24199C1 6.76006 2.20134 5.55872 3.68327 5.55872H22.4662C23.9482 5.55872 25.1495 6.76006 25.1495 8.24199V20.3167C25.1495 21.7987 23.9482 23 22.4662 23Z" stroke="#141D49" stroke-width="2"/>
<path id="Vector_2" d="M19.1122 14.9502C18.7418 14.9502 18.4414 14.6498 18.4414 14.2794C18.4414 13.9089 18.7418 13.6086 19.1122 13.6086C19.4827 13.6086 19.783 13.9089 19.783 14.2794C19.783 14.6498 19.4827 14.9502 19.1122 14.9502Z" fill="black" stroke="#141D49" stroke-width="2" stroke-linecap="round" stroke-linejoin="round"/>
<path id="Vector_3" d="M21.1246 5.55871V3.68474C21.1246 1.92175 19.4534 0.637813 17.7499 1.09206L2.99189 5.02754C1.81729 5.34078 1 6.40456 1 7.62022V8.24199" stroke="#141D49" stroke-width="2"/>
</g>
</svg>
