<svg width="27" height="25" viewBox="0 0 27 25" fill="none" xmlns="http://www.w3.org/2000/svg">
<g id="&#240;&#159;&#166;&#134; icon &#34;user bag&#34;">
<path id="Vector" d="M9.73544 10.9836C12.4923 10.9836 14.7272 8.74867 14.7272 5.99178C14.7272 3.2349 12.4923 1 9.73544 1C6.97855 1 4.74365 3.2349 4.74365 5.99178C4.74365 8.74867 6.97855 10.9836 9.73544 10.9836Z" stroke="#141D49" stroke-width="1.62192" stroke-linecap="round" stroke-linejoin="round"/>
<path id="Vector_2" d="M1 19.7192C1 14.8946 4.91108 10.9836 9.73562 10.9836C11.776 10.9836 13.6531 11.6831 15.14 12.8555" stroke="#141D49" stroke-width="1.62192" stroke-linecap="round" stroke-linejoin="round"/>
<path id="Vector_3" d="M25.165 18.1055L25.5348 20.6014C25.7581 22.109 24.5899 23.463 23.0658 23.463H18.868C17.3439 23.463 16.1757 22.109 16.399 20.6014L16.7688 18.1055C16.9501 16.8816 18.0007 15.9753 19.2377 15.9753H22.696C23.9331 15.9753 24.9837 16.8816 25.165 18.1055Z" stroke="#141D49" stroke-width="1.62192" stroke-linecap="round" stroke-linejoin="round"/>
<path id="Vector_4" d="M19.7192 13.4795H22.2151" stroke="#141D49" stroke-width="1.62192" stroke-linecap="round" stroke-linejoin="round"/>
</g>
</svg>
