<svg width="18" height="19" viewBox="0 0 18 19" fill="none" xmlns="http://www.w3.org/2000/svg">
<g id="monetization_on_24px">
<path id="icon/editor/monetization_on_24px" fill-rule="evenodd" clip-rule="evenodd" d="M9 1.56818C4.86 1.56818 1.5 5.0809 1.5 9.40909C1.5 13.7373 4.86 17.25 9 17.25C13.14 17.25 16.5 13.7373 16.5 9.40909C16.5 5.0809 13.14 1.56818 9 1.56818ZM9 15.6818C5.6925 15.6818 3 12.8669 3 9.40908C3 5.95124 5.6925 3.13636 9 3.13636C12.3075 3.13636 15 5.95124 15 9.40908C15 12.8669 12.3075 15.6818 9 15.6818ZM7.4775 7.42534C7.4775 7.99772 7.905 8.38193 9.2325 8.73477C10.5525 9.09545 11.97 9.69136 11.9775 11.4164C11.97 12.6787 11.07 13.3609 9.93 13.5883V14.8977H8.175V13.5648C7.05 13.3217 6.105 12.569 6.03 11.236H7.32C7.3875 11.9574 7.86 12.5219 9.06 12.5219C10.3425 12.5219 10.635 11.8476 10.635 11.432C10.635 10.8675 10.3425 10.3265 8.88 9.96579C7.2525 9.55806 6.135 8.85238 6.135 7.44886C6.135 6.26488 7.0425 5.49647 8.175 5.24556V3.92045H9.9225V5.26124C11.1375 5.57488 11.7525 6.53931 11.79 7.59H10.5075C10.4775 6.82159 10.0875 6.30409 9.0525 6.30409C8.07 6.30409 7.4775 6.7667 7.4775 7.42534Z" fill="#E2B04E"/>
</g>
</svg>
