<svg width="23" height="25" viewBox="0 0 23 25" fill="none" xmlns="http://www.w3.org/2000/svg">
<g id="&#240;&#159;&#166;&#134; icon &#34;reports&#34;">
<path id="Vector" d="M8 23.2691H15M8 23.2691V17.0832M8 23.2691H1.7C1.3134 23.2691 1 22.9368 1 22.5268V17.8255C1 17.4155 1.3134 17.0832 1.7 17.0832H8M15 23.2691V8.42302M15 23.2691H21.3C21.6866 23.2691 22 22.9368 22 22.5268V1.7423C22 1.33234 21.6866 1 21.3 1H15.7C15.3134 1 15 1.33234 15 1.7423V8.42302M8 17.0832V9.16532C8 8.75536 8.3134 8.42302 8.7 8.42302H15" stroke="black" stroke-width="2"/>
</g>
</svg>
